{
  "accessors": [
    {
      "bufferView": 2,
      "componentType": 5126,
      "count": 2378,
      "max": [
        0.914129912853241,
        0.9303051233291626,
        0.8854430317878723
      ],
      "min": [
        -0.9141299724578857,
        -0.9303051233291626,
        -0.8854430317878723
      ],
      "type": "VEC3"
    },
    {
      "bufferView": 2,
      "byteOffset": 28536,
      "componentType": 5126,
      "count": 2378,
      "max": [
        0.9772054553031921,
        1.0,
        0.9943900108337402
      ],
      "min": [
        -0.9772053956985474,
        -1.0,
        -0.9943900108337402
      ],
      "type": "VEC3"
    },
    {
      "bufferView": 1,
      "componentType": 5126,
      "count": 2378,
      "max": [
        1.0,
        0.4723820686340332
      ],
      "min": [
        0.0,
        0.0
      ],
      "type": "VEC2"
    },
    {
      "bufferView": 0,
      "componentType": 5125,
      "count": 8640,
      "type": "SCALAR"
    },
    {
      "bufferView": 2,
      "byteOffset": 57072,
      "componentType": 5126,
      "count": 7050,
      "max": [
        0.9214391112327576,
        0.8938154578208923,
        0.9248635768890381
      ],
      "min": [
        -0.9214391112327576,
        -0.8938155174255371,
        -0.9248635768890381
      ],
      "type": "VEC3"
    },
    {
      "bufferView": 2,
      "byteOffset": 141672,
      "componentType": 5126,
      "count": 7050,
      "max": [
        0.9993923902511597,
        0.9968636631965637,
        1.0
      ],
      "min": [
        -0.9993923306465149,
        -0.9968637228012085,
        -1.0
      ],
      "type": "VEC3"
    },
    {
      "bufferView": 1,
      "byteOffset": 19024,
      "componentType": 5126,
      "count": 7050,
      "max": [
        0.976333737373352,
        0.4313901662826538
      ],
      "min": [
        0.0236666239798069,
        0.0409918874502182
      ],
      "type": "VEC2"
    },
    {
      "bufferView": 0,
      "byteOffset": 34560,
      "componentType": 5125,
      "count": 25920,
      "type": "SCALAR"
    },
    {
      "bufferView": 2,
      "byteOffset": 226272,
      "componentType": 5126,
      "count": 2978,
      "max": [
        0.9165733456611633,
        0.8951603174209595,
        0.886761486530304
      ],
      "min": [
        -0.9165733456611633,
        -0.8951603770256042,
        -0.886761486530304
      ],
      "type": "VEC3"
    },
    {
      "bufferView": 2,
      "byteOffset": 262008,
      "componentType": 5126,
      "count": 2978,
      "max": [
        0.9988266825675964,
        0.9985449314117432,
        0.9914684295654297
      ],
      "min": [
        -0.9988266229629517,
        -0.9985449910163879,
        -0.9914683103561401
      ],
      "type": "VEC3"
    },
    {
      "bufferView": 1,
      "byteOffset": 75424,
      "componentType": 5126,
      "count": 2978,
      "max": [
        0.9783294200897217,
        0.4348467290401459
      ],
      "min": [
        0.02167101763188839,
        0.03753533586859703
      ],
      "type": "VEC2"
    },
    {
      "bufferView": 0,
      "byteOffset": 138240,
      "componentType": 5125,
      "count": 6000,
      "type": "SCALAR"
    }
  ],
  "asset": {
    "extras": {
      "author": "oskarrimbe (https://sketchfab.com/oskarrimbe)",
      "license": "CC-BY-4.0 (http://creativecommons.org/licenses/by/4.0/)",
      "source": "https://sketchfab.com/3d-models/football-a2358fea94034c6fb7f563330af71bca",
      "title": "Football"
    },
    "generator": "Sketchfab-15.22.0",
    "version": "2.0"
  },
  "bufferViews": [
    {
      "buffer": 0,
      "byteLength": 162240,
      "name": "floatBufferViews",
      "target": 34963
    },
    {
      "buffer": 0,
      "byteLength": 99248,
      "byteOffset": 162240,
      "byteStride": 8,
      "name": "floatBufferViews",
      "target": 34962
    },
    {
      "buffer": 0,
      "byteLength": 297744,
      "byteOffset": 261488,
      "byteStride": 12,
      "name": "floatBufferViews",
      "target": 34962
    }
  ],
  "buffers": [
    {
      "byteLength": 559232,
      "uri": "scene.bin"
    }
  ],
  "materials": [
    {
      "doubleSided": true,
      "name": "Material.001",
      "pbrMetallicRoughness": {
        "baseColorFactor": [
          0.12672,
          0.12672,
          0.12672,
          1.0
        ],
        "metallicFactor": 0.0,
        "roughnessFactor": 0.5
      }
    },
    {
      "doubleSided": true,
      "name": "Material.002",
      "pbrMetallicRoughness": {
        "baseColorFactor": [
          0.8,
          0.8,
          0.8,
          1.0
        ],
        "metallicFactor": 0.0,
        "roughnessFactor": 0.5
      }
    },
    {
      "doubleSided": true,
      "name": "Material.003",
      "pbrMetallicRoughness": {
        "baseColorFactor": [
          0.293216,
          0.293216,
          0.293216,
          1.0
        ],
        "metallicFactor": 0.0,
        "roughnessFactor": 0.5
      }
    }
  ],
  "meshes": [
    {
      "name": "Object_0",
      "primitives": [
        {
          "attributes": {
            "NORMAL": 1,
            "POSITION": 0,
            "TEXCOORD_0": 2
          },
          "indices": 3,
          "material": 0,
          "mode": 4
        }
      ]
    },
    {
      "name": "Object_1",
      "primitives": [
        {
          "attributes": {
            "NORMAL": 5,
            "POSITION": 4,
            "TEXCOORD_0": 6
          },
          "indices": 7,
          "material": 1,
          "mode": 4
        }
      ]
    },
    {
      "name": "Object_2",
      "primitives": [
        {
          "attributes": {
            "NORMAL": 9,
            "POSITION": 8,
            "TEXCOORD_0": 10
          },
          "indices": 11,
          "material": 2,
          "mode": 4
        }
      ]
    }
  ],
  "nodes": [
    {
      "children": [
        1
      ],
      "matrix": [
        1.0,
        0.0,
        0.0,
        0.0,
        0.0,
        2.220446049250313e-16,
        -1.0,
        0.0,
        0.0,
        1.0,
        2.220446049250313e-16,
        0.0,
        0.0,
        0.0,
        0.0,
        1.0
      ],
      "name": "Sketchfab_model"
    },
    {
      "children": [
        2
      ],
      "name": "root"
    },
    {
      "children": [
        3
      ],
      "matrix": [
        1.0,
        0.0,
        0.0,
        0.0,
        0.0,
        2.220446049250313e-16,
        1.0,
        0.0,
        0.0,
        -1.0,
        2.220446049250313e-16,
        0.0,
        0.0,
        0.0,
        0.0,
        1.0
      ],
      "name": "GLTF_SceneRootNode"
    },
    {
      "children": [
        4,
        5,
        6
      ],
      "name": "Icosphere_2"
    },
    {
      "mesh": 0,
      "name": "Object_4"
    },
    {
      "mesh": 1,
      "name": "Object_5"
    },
    {
      "mesh": 2,
      "name": "Object_6"
    }
  ],
  "scene": 0,
  "scenes": [
    {
      "name": "Sketchfab_Scene",
      "nodes": [
        0
      ]
    }
  ]
}
