{
  "accessors": [
    {
      "bufferView": 2,
      "componentType": 5126,
      "count": 2180,
      "max": [
        0.8420602083206177,
        0.794852614402771,
        0.8451201319694519
      ],
      "min": [
        -0.8420602083206177,
        -0.794852614402771,
        -0.8451201319694519
      ],
      "type": "VEC3"
    },
    {
      "bufferView": 2,
      "byteOffset": 26160,
      "componentType": 5126,
      "count": 2180,
      "max": [
        0.9995364546775818,
        0.998258650302887,
        0.9984722137451172
      ],
      "min": [
        -0.9995364546775818,
        -0.973982572555542,
        -0.996871292591095
      ],
      "type": "VEC3"
    },
    {
      "bufferView": 1,
      "componentType": 5126,
      "count": 2180,
      "max": [
        0.963419497013092,
        0.9383689165115356
      ],
      "min": [
        0.03658086061477661,
        0.5892491340637207
      ],
      "type": "VEC2"
    },
    {
      "bufferView": 0,
      "componentType": 5125,
      "count": 8640,
      "type": "SCALAR"
    },
    {
      "bufferView": 2,
      "byteOffset": 52320,
      "componentType": 5126,
      "count": 1092,
      "max": [
        0.8369541168212891,
        0.8423020243644714,
        0.834364116191864
      ],
      "min": [
        -0.8369541168212891,
        -0.8423020243644714,
        -0.8343641757965088
      ],
      "type": "VEC3"
    },
    {
      "bufferView": 2,
      "byteOffset": 65424,
      "componentType": 5126,
      "count": 1092,
      "max": [
        0.9990588426589966,
        1.0,
        0.9964813590049744
      ],
      "min": [
        -0.9990588426589966,
        -1.0,
        -0.9968885779380798
      ],
      "type": "VEC3"
    },
    {
      "bufferView": 1,
      "byteOffset": 17440,
      "componentType": 5126,
      "count": 1092,
      "max": [
        0.9448076486587524,
        0.9400981068611145
      ],
      "min": [
        0.05519265681505203,
        0.5875198841094971
      ],
      "type": "VEC2"
    },
    {
      "bufferView": 0,
      "byteOffset": 34560,
      "componentType": 5125,
      "count": 4320,
      "type": "SCALAR"
    },
    {
      "bufferView": 2,
      "byteOffset": 78528,
      "componentType": 5126,
      "count": 2756,
      "max": [
        0.8295619487762451,
        0.7917855978012085,
        0.8352546691894531
      ],
      "min": [
        -0.8295619487762451,
        -0.7917855978012085,
        -0.8352546691894531
      ],
      "type": "VEC3"
    },
    {
      "bufferView": 2,
      "byteOffset": 111600,
      "componentType": 5126,
      "count": 2756,
      "max": [
        0.9926316142082214,
        0.9847130179405212,
        1.0
      ],
      "min": [
        -0.9926316142082214,
        -0.9847130179405212,
        -1.0
      ],
      "type": "VEC3"
    },
    {
      "bufferView": 1,
      "byteOffset": 26176,
      "componentType": 5126,
      "count": 2756,
      "max": [
        0.9649171233177185,
        0.9400981068611145
      ],
      "min": [
        0.035212304443120956,
        0.5875197649002075
      ],
      "type": "VEC2"
    },
    {
      "bufferView": 0,
      "byteOffset": 51840,
      "componentType": 5125,
      "count": 12960,
      "type": "SCALAR"
    }
  ],
  "asset": {
    "extras": {
      "author": "-sPiKe- (https://sketchfab.com/-sPiKe-)",
      "license": "CC-BY-4.0 (http://creativecommons.org/licenses/by/4.0/)",
      "source": "https://sketchfab.com/3d-models/football-f2f8d19e782d447e87f76259baf830d9",
      "title": "Football"
    },
    "generator": "Sketchfab-15.15.0",
    "version": "2.0"
  },
  "bufferViews": [
    {
      "buffer": 0,
      "byteLength": 103680,
      "name": "floatBufferViews",
      "target": 34963
    },
    {
      "buffer": 0,
      "byteLength": 48224,
      "byteOffset": 103680,
      "byteStride": 8,
      "name": "floatBufferViews",
      "target": 34962
    },
    {
      "buffer": 0,
      "byteLength": 144672,
      "byteOffset": 151904,
      "byteStride": 12,
      "name": "floatBufferViews",
      "target": 34962
    }
  ],
  "buffers": [
    {
      "byteLength": 296576,
      "uri": "scene.bin"
    }
  ],
  "materials": [
    {
      "doubleSided": true,
      "name": "Material.001",
      "pbrMetallicRoughness": {
        "baseColorFactor": [
          0.0,
          0.0,
          0.0,
          1.0
        ],
        "metallicFactor": 0.0,
        "roughnessFactor": 0.5
      }
    },
    {
      "doubleSided": true,
      "name": "Material.002",
      "pbrMetallicRoughness": {
        "baseColorFactor": [
          1.0,
          1.0,
          0.0,
          1.0
        ],
        "metallicFactor": 0.0,
        "roughnessFactor": 0.5
      }
    },
    {
      "doubleSided": true,
      "name": "Border",
      "pbrMetallicRoughness": {
        "metallicFactor": 0.0,
        "roughnessFactor": 0.5
      }
    }
  ],
  "meshes": [
    {
      "name": "Object_0",
      "primitives": [
        {
          "attributes": {
            "NORMAL": 1,
            "POSITION": 0,
            "TEXCOORD_0": 2
          },
          "indices": 3,
          "material": 0,
          "mode": 4
        }
      ]
    },
    {
      "name": "Object_1",
      "primitives": [
        {
          "attributes": {
            "NORMAL": 5,
            "POSITION": 4,
            "TEXCOORD_0": 6
          },
          "indices": 7,
          "material": 1,
          "mode": 4
        }
      ]
    },
    {
      "name": "Object_2",
      "primitives": [
        {
          "attributes": {
            "NORMAL": 9,
            "POSITION": 8,
            "TEXCOORD_0": 10
          },
          "indices": 11,
          "material": 2,
          "mode": 4
        }
      ]
    }
  ],
  "nodes": [
    {
      "children": [
        1
      ],
      "matrix": [
        1.0,
        0.0,
        0.0,
        0.0,
        0.0,
        2.220446049250313e-16,
        -1.0,
        0.0,
        0.0,
        1.0,
        2.220446049250313e-16,
        0.0,
        0.0,
        0.0,
        0.0,
        1.0
      ],
      "name": "Sketchfab_model"
    },
    {
      "children": [
        2
      ],
      "name": "root"
    },
    {
      "children": [
        3
      ],
      "matrix": [
        1.0,
        0.0,
        0.0,
        0.0,
        0.0,
        2.220446049250313e-16,
        1.0,
        0.0,
        0.0,
        -1.0,
        2.220446049250313e-16,
        0.0,
        0.0,
        0.0,
        0.0,
        1.0
      ],
      "name": "GLTF_SceneRootNode"
    },
    {
      "children": [
        4,
        5,
        6
      ],
      "matrix": [
        1.0,
        0.0,
        0.0,
        0.0,
        0.0,
        1.0,
        0.0,
        0.0,
        0.0,
        0.0,
        1.0,
        0.0,
        0.0,
        0.8500000238418579,
        0.0,
        1.0
      ],
      "name": "Football_0"
    },
    {
      "mesh": 0,
      "name": "Object_4"
    },
    {
      "mesh": 1,
      "name": "Object_5"
    },
    {
      "mesh": 2,
      "name": "Object_6"
    }
  ],
  "scene": 0,
  "scenes": [
    {
      "name": "Sketchfab_Scene",
      "nodes": [
        0
      ]
    }
  ]
}
