<?xml version="1.0" encoding="utf-8"?>
<!-- Generator: Adobe Illustrator 27.8.1, SVG Export Plug-In . SVG Version: 6.00 Build 0)  -->
<svg version="1.1" id="Layer_1" xmlns="http://www.w3.org/2000/svg" xmlns:xlink="http://www.w3.org/1999/xlink" x="0px" y="0px"
	 viewBox="0 0 1080 1080" style="enable-background:new 0 0 1080 1080;" xml:space="preserve">
<style type="text/css">
	.st0{fill:none;stroke:#FFFFFF;stroke-width:10;stroke-miterlimit:10;}
	.st1{clip-path:url(#SVGID_00000160870885743649506670000010039578547888910743_);}
	.st2{fill:#FFFFFF;}
	.st3{clip-path:url(#SVGID_00000069400311300223986530000005980767318785365139_);}
	.st4{fill:#E6E6E6;}
	.st5{clip-path:url(#SVGID_00000075860947563767296460000004523999291187187866_);}
	.st6{fill:#FFD700;}
</style>
<g>
	<g>
		<path d="M535.51,949.18c-41.2-25.5-97.63-60.42-148.94-109.21c-28.12-26.74-51.84-55.09-70.52-84.26
			c-21.83-34.11-37.55-70.53-46.72-108.25c-48-197.46-43.08-309.33-43.02-310.44l0.18-3.55l3.41-1
			c0.38-0.11,38.69-11.34,144.22-38.53c111.76-28.8,164.69-39.54,165.21-39.65l0.99-0.2l0.99,0.2c0.52,0.1,53.45,10.84,165.21,39.65
			c105.53,27.2,143.84,38.42,144.22,38.53l3.41,1l0.18,3.55c0.05,1.11,4.98,112.98-43.02,310.44
			c-9.17,37.73-24.89,74.15-46.72,108.25c-18.68,29.18-42.4,57.53-70.52,84.26c-51.3,48.79-107.73,83.71-148.94,109.21l-4.8,2.97
			L535.51,949.18z"/>
		<path d="M540.31,259.2c0,0,52.03,10.48,164.95,39.59c106.67,27.49,144.06,38.49,144.06,38.49s5.5,109.97-42.89,309.01
			C767.36,806.96,621.68,895.9,540.31,946.27c-81.37-50.37-227.06-139.31-266.12-299.99C225.8,447.24,231.3,337.27,231.3,337.27
			s37.39-11,144.05-38.49C488.28,269.68,540.31,259.2,540.31,259.2 M540.31,249l-1.98,0.4c-0.52,0.11-53.58,10.87-165.47,39.71
			c-105.61,27.22-144.01,38.47-144.38,38.58l-6.81,2l-0.35,7.09c-0.06,1.15-1.36,28.79,3.33,81.25
			c4.29,48.12,14.69,127.2,39.83,230.62c9.3,38.26,25.24,75.2,47.37,109.77c18.9,29.52,42.88,58.18,71.29,85.19
			c51.68,49.14,108.36,84.22,149.75,109.83l2.16,1.34l5.26,3.26l5.26-3.26l2.16-1.34c41.39-25.61,98.07-60.69,149.75-109.83
			c28.41-27.01,52.39-55.68,71.29-85.19c22.13-34.57,38.07-71.51,47.37-109.77c25.14-103.42,35.54-182.49,39.83-230.62
			c4.68-52.46,3.38-80.1,3.33-81.25l-0.35-7.09l-6.81-2c-0.38-0.11-38.77-11.36-144.38-38.58
			c-111.89-28.84-164.95-39.6-165.47-39.71L540.31,249L540.31,249z"/>
	</g>
	<path class="st0" d="M541.76,286.38c0,0,47.83,9.64,151.64,36.39c98.06,25.27,132.43,35.38,132.43,35.38s5.05,101.09-39.42,284.06
		c-35.91,147.71-169.83,229.47-244.64,275.78c-74.81-46.3-208.73-128.07-244.64-275.78c-44.48-182.97-39.42-284.06-39.42-284.06
		s34.37-10.11,132.43-35.38C493.93,296.02,541.76,286.38,541.76,286.38z"/>
	<g>
		<defs>
			<path id="SVGID_1_" d="M543.07,137.73c0,0,23.35-7.03,139.87-2.45c187.39,7.36,165.76,200.83,165.76,200.83
				s5.5,109.97-42.89,309.01C766.75,805.8,621.07,894.74,539.69,945.11c-81.37-50.37-227.06-139.31-266.12-299.99
				c-48.39-199.04-42.89-309.01-42.89-309.01s1.14-89.91,107.81-117.4C451.42,189.61,543.07,137.73,543.07,137.73z"/>
		</defs>
		<clipPath id="SVGID_00000037670162347795438270000002238942731489056941_">
			<use xlink:href="#SVGID_1_"  style="overflow:visible;"/>
		</clipPath>
		<g style="clip-path:url(#SVGID_00000037670162347795438270000002238942731489056941_);">
			<g>
				<g>
					<g>
						<path class="st2" d="M477.79,267.73c14.96,0,26.73,5.4,35.32,16.19c8.34,10.8,10.91,23.67,7.73,38.63l-37.16,175.49
							c-3.19,14.96-11.28,27.84-24.28,38.63c-13.25,10.79-27.35,16.19-42.31,16.19h-54.82l-51.14,240.98h-65.85l111.84-526.11
							H477.79z M409,487c7.36,0,11.89-3.68,13.61-11.04l27.96-131.34c1.47-7.36-1.47-11.04-8.83-11.04H409L376.25,487H409z"/>
					</g>
				</g>
				<g>
					<defs>
						<polyline id="SVGID_00000163044605666071480490000006410549787961257644_" points="646.89,793.96 120.54,793.96 
							120.54,267.61 						"/>
					</defs>
					<clipPath id="SVGID_00000181060923016179207030000014459916147676294536_">
						<use xlink:href="#SVGID_00000163044605666071480490000006410549787961257644_"  style="overflow:visible;"/>
					</clipPath>
					<g style="clip-path:url(#SVGID_00000181060923016179207030000014459916147676294536_);">
						<g>
							<path class="st4" d="M477.79,267.73c14.96,0,26.73,5.4,35.32,16.19c8.34,10.8,10.91,23.67,7.73,38.63l-37.16,175.49
								c-3.19,14.96-11.28,27.84-24.28,38.63c-13.25,10.79-27.35,16.19-42.31,16.19h-54.82l-51.14,240.98h-65.85l111.84-526.11
								H477.79z M409,487c7.36,0,11.89-3.68,13.61-11.04l27.96-131.34c1.47-7.36-1.47-11.04-8.83-11.04H409L376.25,487H409z"/>
						</g>
					</g>
				</g>
				<g>
					<g>
						<path d="M477.79,267.73c14.96,0,26.73,5.4,35.32,16.19c8.34,10.8,10.91,23.67,7.73,38.63l-37.16,175.49
							c-3.19,14.96-11.28,27.84-24.28,38.63c-13.25,10.79-27.35,16.19-42.31,16.19h-54.82l-51.14,240.98h-65.85l111.84-526.11
							H477.79 M376.25,487H409c7.36,0,11.89-3.68,13.61-11.04l27.96-131.34c1.47-7.36-1.47-11.04-8.83-11.04H409L376.25,487
							 M477.79,257.73H357.12h-8.1l-1.68,7.92L235.49,791.76l-2.57,12.08h12.35h65.85h8.1l1.68-7.92l49.46-233.05h46.72
							c17.25,0,33.61-6.2,48.63-18.44l0.04-0.03l0.04-0.03c14.71-12.21,24.02-27.1,27.67-44.24l37.16-175.51
							c3.81-17.88,0.58-33.63-9.59-46.81l-0.04-0.06l-0.05-0.06C510.4,264.45,495.88,257.73,477.79,257.73L477.79,257.73z
							 M417.09,343.59h23.48l-27.72,130.19c-0.73,3.08-1.52,3.22-3.85,3.22h-20.38L417.09,343.59L417.09,343.59z"/>
					</g>
				</g>
			</g>
			<g>
				<g>
					<g>
						<path class="st2" d="M793.11,267.73c14.96,0,26.73,5.4,35.32,16.19c8.34,10.8,10.91,23.67,7.73,38.63L799,498.04
							c-3.19,14.96-11.28,27.84-24.28,38.63c-13.25,10.79-27.35,16.19-42.31,16.19h-54.82l-51.14,240.98h-65.85l111.84-526.11
							H793.11z M724.31,487c7.36,0,11.89-3.68,13.61-11.04l27.96-131.34c1.47-7.36-1.47-11.04-8.83-11.04h-32.74L691.57,487H724.31z
							"/>
					</g>
				</g>
				<g>
					<defs>
						<polyline id="SVGID_00000130645081273653667490000015173384018140318608_" points="962.21,793.96 435.86,793.96 
							435.86,267.61 						"/>
					</defs>
					<clipPath id="SVGID_00000168102187833598620040000014881245776629333140_">
						<use xlink:href="#SVGID_00000130645081273653667490000015173384018140318608_"  style="overflow:visible;"/>
					</clipPath>
					<g style="clip-path:url(#SVGID_00000168102187833598620040000014881245776629333140_);">
						<g>
							<path class="st4" d="M793.11,267.73c14.96,0,26.73,5.4,35.32,16.19c8.34,10.8,10.91,23.67,7.73,38.63L799,498.04
								c-3.19,14.96-11.28,27.84-24.28,38.63c-13.25,10.79-27.35,16.19-42.31,16.19h-54.82l-51.14,240.98h-65.85l111.84-526.11
								H793.11z M724.31,487c7.36,0,11.89-3.68,13.61-11.04l27.96-131.34c1.47-7.36-1.47-11.04-8.83-11.04h-32.74L691.57,487H724.31
								z"/>
						</g>
					</g>
				</g>
				<g>
					<g>
						<path d="M793.11,267.73c14.96,0,26.73,5.4,35.32,16.19c8.34,10.8,10.91,23.67,7.73,38.63L799,498.04
							c-3.19,14.96-11.28,27.84-24.28,38.63c-13.24,10.79-27.35,16.19-42.31,16.19h-54.82l-51.14,240.98h-65.85l111.84-526.11
							H793.11 M691.57,487h32.74c7.36,0,11.89-3.68,13.61-11.04l27.96-131.34c1.47-7.36-1.47-11.04-8.83-11.04h-32.74L691.57,487
							 M793.11,257.73H672.44h-8.1l-1.68,7.92L550.81,791.76l-2.57,12.08h12.35h65.85h8.1l1.68-7.92l49.46-233.05h46.72
							c17.25,0,33.61-6.2,48.63-18.44l0.04-0.03l0.04-0.03c14.71-12.21,24.02-27.1,27.67-44.24l37.16-175.51
							c3.81-17.88,0.58-33.63-9.59-46.81l-0.04-0.06l-0.05-0.06C825.71,264.45,811.2,257.73,793.11,257.73L793.11,257.73z
							 M732.4,343.59h23.48l-27.72,130.19c-0.73,3.08-1.52,3.22-3.85,3.22h-20.38L732.4,343.59L732.4,343.59z"/>
					</g>
				</g>
			</g>
			<g>
				<g>
					<path class="st6" d="M414.12,666.23l9.3-44.39l164.75-291.1c4.26-7.4,7.2-15.19,8.75-23.2l18.28-84.61
						c0.44-2.22,0.23-3.49-0.1-3.88c-0.3-0.37-1.43-0.8-3.61-0.8h-21.49c-3.77,0-6.51,1.14-7.63,6.72l-21.27,99.99h-74.31
						l25.98-123.49c3.33-15.64,11.98-29.25,25.73-40.45c13.21-11.18,28.03-16.88,43.98-16.88h64.1c16.09,0,28.97,5.94,38.29,17.64
						c9.06,11.73,11.9,25.76,8.5,41.76l-22.56,106c-3.44,16.17-9.51,32.18-18.07,47.58L519.81,592.13h91.07l-15.73,74.1H414.12z"/>
					<path d="M646.6,149.13c14.56,0,26.02,5.25,34.38,15.76c8.11,10.51,10.62,23.04,7.52,37.6l-22.56,106
						c-3.35,15.76-9.19,31.16-17.55,46.2L511.24,597.13h93.47l-13.61,64.1H420.28l7.88-37.6L592.53,333.2
						c4.53-7.88,7.64-16.11,9.31-24.71l18.26-84.51c1.43-7.16-1.43-10.74-8.59-10.74h-21.49c-6.93,0-11.1,3.58-12.53,10.74
						l-20.41,95.97h-64.1l24.71-117.46c3.1-14.56,11.1-27.09,23.99-37.6c12.41-10.5,26.02-15.76,40.82-15.76H646.6 M646.6,139.13
						h-64.1c-17.14,0-33.02,6.08-47.21,18.06c-14.61,11.93-23.82,26.47-27.38,43.21l-24.72,117.48l-2.54,12.06h12.32h64.1h8.1
						l1.68-7.92l20.41-95.97l0.01-0.06l0.01-0.06c0.54-2.71,0.92-2.71,2.73-2.71h20.01l-17.97,83.15l-0.02,0.1l-0.02,0.1
						c-1.45,7.47-4.2,14.74-8.16,21.63l-0.02,0.03l-0.02,0.03L419.45,618.7l-0.77,1.35l-0.32,1.52l-7.88,37.6l-2.52,12.05h12.31
						h170.82h8.1l1.68-7.92l13.61-64.1l2.56-12.08H604.7h-76.32l128.71-227.52l0.02-0.03l0.02-0.03
						c8.8-15.84,15.05-32.31,18.59-48.97l22.56-106c3.73-17.49,0.57-32.9-9.39-45.79l-0.05-0.06l-0.05-0.06
						C678.49,145.71,664.29,139.13,646.6,139.13L646.6,139.13z"/>
				</g>
			</g>
		</g>
	</g>
	<g>
		<g>
			<polygon class="st2" points="342.13,673.6 453.86,648.14 597.99,641.87 673.03,648.14 740.83,669.12 732.3,755.83 810.83,790.35 
				822.04,802.72 758.02,835.41 773.57,866.49 795.98,911.94 759.85,906.38 653.99,881.07 658.11,811.11 590.72,802.72 
				490.06,802.72 421.47,820.09 427.64,893.42 330.69,911.94 283.6,926.34 308.06,874.64 325.44,850.74 260.4,806.31 310.81,779.18 
				342.13,764.44 321.25,686 			"/>
			<g>
				<g>
					<path d="M830.2,794.85c-26.36-20.63-56.01-34.93-88.06-44.43c-0.6-0.18-1.17-0.27-1.71-0.32c2.51-26.38,5.03-52.77,7.54-79.15
						c0.23-2.41-1.59-5.74-3.85-6.72c-66.08-28.46-140.35-33.22-211.45-30.92c-71.92,2.32-146.76,14.16-212.62,44.1
						c-3.01,1.37-3.94,5.2-3.31,8.12c5.39,25.16,10.65,50.36,15.85,75.56c-29.78,9.48-57.43,23.21-82.16,42.55
						c-4.17,3.26-2.2,9.77,1.57,12.24c19.77,12.93,40.51,24.02,61.21,35.32c-17.37,22.28-31.35,46.84-37.58,74.69
						c-1.15,5.13,3.66,11.9,9.51,9.51c46.7-19,95.56-27.34,144.91-36.33c3.09-0.56,6.15-4.37,5.75-7.56
						c-2.82-22.82-5.26-45.53-5.75-68.53c71.13-15.77,149.05-18.99,220.38-5.87c-0.62,22-2.93,43.75-5.63,65.6
						c-0.39,3.19,2.66,7,5.75,7.56c49.35,8.99,98.21,17.33,144.91,36.33c5.85,2.38,10.66-4.38,9.51-9.51
						c-6.22-27.85-20.21-52.41-37.57-74.69c20.7-11.3,41.44-22.4,61.21-35.32C832.4,804.61,834.37,798.11,830.2,794.85z
						 M294.88,915.16c7.76-22.33,21.01-42.64,36.11-60.76c3.18-3.82,3.21-9.88-1.62-12.53c-19.96-10.99-40.1-21.59-59.58-33.38
						c20.32-14.26,42.54-23.98,65.74-32.94c4.4,21.47,8.79,42.94,13.14,64.41c0.29,1.46,1.01,2.44,1.84,3.2
						c0.35,0.41,0.74,0.77,1.19,1.06c0.15,0.18,0.23,0.4,0.42,0.57c11.36,10.32,25.34,18.53,37.65,27.7
						c6.57,4.89,13.11,9.83,19.76,14.6c-6.4,2.92-16.03,2.76-26.36,4.67C353.02,897.36,323.56,904.64,294.88,915.16z M417.03,868.17
						c0.29,2.46,0.33,4.56,0.22,6.46c-5.65-4.37-11.34-8.69-17.12-12.92c-9.55-6.99-19.36-15.45-29.81-21.97
						c14.07-4.84,28.6-9.15,43.51-12.91C414.33,840.68,415.37,854.38,417.03,868.17z M359.86,829.49
						c-4.25-20.96-8.53-41.93-12.74-62.9c0.12-1.47-0.18-2.95-0.82-4.22c-4.2-20.96-8.36-41.94-12.32-62.94
						c-1.09-5.8-2.22-11.6-3.33-17.41c1.33,6.99,55.04-12.19,61.29-13.82c45.87-11.98,93.45-17.32,140.71-19.42
						c46.8-2.07,94.03,0.74,140.05,9.57c17.82,3.41,35.24,8.48,52.28,14.67c7.88,2.86,7.75-5.49,6.98,2.59
						c-0.41,4.21-0.81,8.42-1.2,12.64c-4.16,43.64-8.29,87.28-12.43,130.92C607.72,779.65,468.67,788.65,359.86,829.49z
						 M708.57,832.13c-8.78,5.77-17.09,12.77-25.24,18.71c-7.01,5.11-13.89,10.35-20.73,15.65c1.95-15.34,3.46-30.6,4.12-46.03
						C681.03,823.64,695.01,827.52,708.57,832.13z M670.84,878.48c6.75-4.82,13.37-9.82,20-14.78
						c11.67-8.72,24.77-16.59,35.79-26.17c3.39-0.75,5.88-4.38,6.21-7.78c2.08-21.77,4.14-43.54,6.21-65.31
						c25.39,9.61,49.69,19.76,71.77,35.25c-19.48,11.79-39.63,22.39-59.58,33.38c-4.83,2.66-4.8,8.71-1.62,12.53
						c15.1,18.12,28.35,38.43,36.12,60.78c-25.39-9.3-51.3-16-77.95-21.41C702.9,883.97,682.7,882.53,670.84,878.48z"/>
				</g>
				<g>
					<path d="M414.67,673.6c-13.71,0.35-26.95,3.78-40.05,7.65c-11.08,3.27-24.07,6.96-32.21,15.57c-0.66,0.7,0,1.76,0.9,1.56
						c12.71-2.72,24.84-8.76,37.46-12.18c11.66-3.16,23.41-5.46,34.52-10.3C416.44,675.39,415.82,673.57,414.67,673.6z"/>
				</g>
				<g>
					<path d="M394.21,692.94c-8.18-0.67-16.38,1.95-24.23,4.02c-8.16,2.15-15.6,4.53-22.72,9.12c-0.99,0.64-0.36,2.14,0.8,1.89
						c7.84-1.75,15.54-3.96,23.36-5.77c7.96-1.84,16.41-2.85,23.24-7.6C395.39,694.07,395.1,693.01,394.21,692.94z"/>
				</g>
				<g>
					<path d="M383.19,709.83c-9.8,1.02-25.02,0.97-32.03,9c-0.45,0.51-0.16,1.33,0.55,1.34c5.37,0.14,10.92-2.02,16.1-3.34
						c5.51-1.4,10.61-3.15,15.77-5.53C384.28,710.98,383.96,709.75,383.19,709.83z"/>
				</g>
				<g>
					<path d="M693.29,795.37c-6.28-2.42-13.3-4.14-19.87-2.12c-0.54,0.17-0.49,0.86,0,1.04c6.07,2.27,12.47,3.52,18.58,5.74
						c6.25,2.26,11.79,6.04,18.55,6.27c0.74,0.02,1.08-0.92,0.59-1.43C706.34,799.98,699.57,797.78,693.29,795.37z"/>
				</g>
				<g>
					<path d="M702.13,792.78c2.46,0.95,6.33,3.5,8.86,1.76c0.37-0.25,0.47-0.57,0.41-1c-0.37-2.74-3.92-3.52-6.16-4.19
						c-2.77-0.82-6.16-2.4-9-1.21c-0.33,0.14-0.49,0.46-0.32,0.8C697.14,791.34,699.8,791.88,702.13,792.78z"/>
				</g>
				<g>
					<path d="M389.44,645.88c61.29-14.41,123.03-23.37,187.07-20.23c0.71,0.03,0.68-1.02,0-1.08c-43.66-4.19-87.12-1.07-130.37,5.6
						c-19.03,2.94-38.5,6.42-57.63,11.11"/>
				</g>
				<g>
					<path d="M597.49,627.7c0.44-0.02,0.73-0.71,0.25-0.92c-4.37-1.88-9.37-1.77-14-1.03c-0.4,0.06-0.4,0.74,0,0.81
						C588.2,627.28,592.99,627.86,597.49,627.7z"/>
				</g>
				<g>
					<path d="M561.82,820.67c-38.84-1.55-82.2-0.59-119.71,10.77c-0.39,0.12-0.33,0.76,0.1,0.73c39.95-2.74,79.5-8.3,119.61-10.22
						C562.64,821.91,562.64,820.7,561.82,820.67z"/>
				</g>
				<g>
					<path d="M806.07,766.77c9.51,4.02,18.12,9.77,27.59,13.83c0.61,0.26,1.28-0.44,0.75-0.97c-13.87-13.59-36.99-22.08-56.04-24.09
						c-0.47-0.05-0.49,0.63-0.1,0.77C787.55,759.78,796.94,762.9,806.07,766.77z"/>
				</g>
				<g>
					<path d="M681.91,907.93c10.08,2.22,19.6,6.3,29.65,8.57c0.65,0.14,1.18-0.67,0.56-1.09c-16.12-10.83-40.4-14.96-59.5-13.46
						c-0.47,0.04-0.37,0.71,0.04,0.78C662.43,904.43,672.23,905.79,681.91,907.93z"/>
				</g>
				<g>
					<path d="M273.28,775.8c8.42-4.26,17.19-7.5,24.92-12.98c0.59-0.42,0.09-1.27-0.57-1.08c-18.78,5.48-41.83,15.62-53.06,32.37
						c-0.19,0.28,0.13,0.72,0.43,0.47C251.29,789.27,261.39,781.81,273.28,775.8z"/>
				</g>
				<g>
					<path d="M385.09,919.8c-9.21,2.03-18.05,5.07-27.51,5.72c-0.72,0.05-0.87-0.93-0.24-1.2c18.01-7.63,42.28-14.37,61.57-8.5
						c0.32,0.1,0.35,0.64-0.04,0.63C407.41,916.26,396.29,917.33,385.09,919.8z"/>
				</g>
			</g>
		</g>
		<g>
			<g>
				<path d="M428.65,681.68c-4.42,35.75-8.82,71.5-13.19,107.25c-5.08,1.64-7.62,2.5-12.66,4.32c0.65-5.4,0.97-8.1,1.62-13.5
					c-3.78,1.34-5.66,2.03-9.41,3.47c-1.48,5.74-2.22,8.61-3.7,14.36c-5,1.97-7.48,3-12.43,5.14
					c9.68-38.28,19.53-76.51,29.57-114.69C416.48,685.27,420.52,684.01,428.65,681.68z M398.73,768.97
					c2.92-1.09,4.38-1.61,7.32-2.64c1.88-15.61,3.77-31.23,5.66-46.84C407.34,735.97,403.03,752.47,398.73,768.97z"/>
				<path d="M471.02,672c1.8-0.31,3.18,0.19,4.16,1.25c0.99,1.08,1.41,2.54,1.02,4.38c-2,9.65-3.99,19.29-5.98,28.94
					c-5.22,0.91-7.82,1.41-13.02,2.5c1.65-8.08,2.48-12.12,4.14-20.19c0.29-1.5-0.29-2.11-1.74-1.82c-1.74,0.35-2.61,0.53-4.35,0.91
					c-1.4,0.3-2.25,1.21-2.54,2.72c-5.23,25.63-10.42,51.26-15.59,76.9c-0.29,1.47,0.26,2.02,1.65,1.66
					c1.73-0.45,2.59-0.66,4.32-1.09c1.44-0.36,2.31-1.26,2.6-2.72c1.65-8.16,2.47-12.24,4.12-20.38c5.18-1.18,7.78-1.73,12.98-2.74
					c-1.99,9.74-3.98,19.48-5.96,29.21c-0.39,1.86-1.35,3.58-2.9,5.17c-1.55,1.59-3.21,2.58-4.99,3c-8.62,1.99-12.91,3.1-21.43,5.56
					c-1.76,0.51-3.12,0.26-4.07-0.68c-0.97-0.95-1.31-2.37-0.93-4.27c6.3-31.87,12.66-63.74,19.07-95.59
					c0.38-1.88,1.32-3.63,2.81-5.24c1.54-1.67,3.2-2.72,4.98-3.13C458,674.37,462.33,673.5,471.02,672z"/>
				<path d="M513.04,666.97c-4.55,34.79-9.08,69.59-13.61,104.38c-5.26,0.53-7.89,0.84-13.13,1.54c0.67-5.26,1.01-7.89,1.69-13.15
					c-3.93,0.51-5.89,0.79-9.81,1.39c-1.55,5.41-2.32,8.12-3.87,13.54c-5.23,0.86-7.84,1.33-13.04,2.36
					c10.17-36.08,20.47-72.13,30.9-108.14C500.5,667.92,504.67,667.53,513.04,666.97z M482.06,747.71c3.04-0.44,4.57-0.65,7.62-1.03
					c1.95-15.2,3.91-30.4,5.87-45.6C491.02,716.62,486.52,732.16,482.06,747.71z"/>
				<path d="M551.88,666.22c3,0.09,5.38,1.25,7.08,3.44c1.67,2.17,2.18,4.75,1.55,7.65c-5.92,27.07-11.82,54.15-17.69,81.23
					c-0.69,2.98-2.36,5.49-4.94,7.58c-2.6,2.11-5.41,3.23-8.41,3.31c-9.67,0.26-14.51,0.53-24.15,1.36
					c7.42-34.86,14.88-69.71,22.39-104.55C537.37,665.95,542.21,665.94,551.88,666.22z M527.84,756.56
					c1.47-0.05,2.36-0.76,2.65-2.17c5.29-24.41,10.6-48.81,15.93-73.21c0.3-1.44-0.3-2.17-1.77-2.19c-2.63-0.03-3.94-0.03-6.56-0.02
					c-5.62,25.94-11.23,51.88-16.81,77.83C523.91,756.69,525.22,756.64,527.84,756.56z"/>
				<path d="M601.56,670.69c-1.11,5-1.67,7.5-2.78,12.51c-7.84-1.14-11.78-1.61-19.65-2.37c-2.18,9.84-4.37,19.69-6.55,29.53
					c4.39,0.35,6.58,0.55,10.95,1.02c-1.12,5.05-1.67,7.58-2.79,12.63c-4.38-0.44-6.57-0.63-10.96-0.95
					c-2.48,11.3-4.96,22.59-7.44,33.89c7.9,0.43,11.84,0.74,19.72,1.55c-1.12,5.05-1.67,7.58-2.79,12.64
					c-11.01-0.9-21.87-1.51-32.92-1.83c7.43-34.1,14.9-68.2,22.4-102.29C579.78,667.98,590.6,669.18,601.56,670.69z"/>
				<path d="M659.02,683.77c-7.27,32.41-14.54,64.82-21.8,97.24c-5.16-1.27-7.75-1.86-12.95-2.96c4.91-21.92,9.83-43.84,14.75-65.76
					c-7.81,21.34-15.58,42.69-23.32,64.05c-3.52-0.66-5.28-0.98-8.82-1.56c2.09-22.69,4.18-45.38,6.27-68.07
					c-4.97,22.24-9.94,44.49-14.89,66.74c-5.24-0.75-7.86-1.09-13.12-1.67c7.4-33.39,14.82-66.77,22.25-100.15
					c8.78,1.47,13.16,2.33,21.88,4.28c-1.01,10.87-2.03,21.74-3.04,32.61c3.73-10.23,7.46-20.46,11.21-30.69
					C646.12,679.96,650.44,681.15,659.02,683.77z"/>
				<path d="M701.74,699.48c-8.72,19-17.4,38.03-26.05,57.06c-2.5,11.13-5,22.26-7.49,33.39c-5.05-1.67-7.58-2.47-12.67-3.97
					c2.52-11.21,5.04-22.43,7.55-33.64c0.54-22.25,1.09-44.51,1.64-66.76c5.17,1.66,7.75,2.54,12.87,4.38
					c-0.26,10.47-0.52,20.94-0.78,31.42c4.08-9.04,8.17-18.07,12.28-27.09C694.18,696.26,696.71,697.3,701.74,699.48z"/>
			</g>
		</g>
	</g>
</g>
</svg>
