<?xml version="1.0" encoding="utf-8"?>
<!-- Generator: Adobe Illustrator 27.7.0, SVG Export Plug-In . SVG Version: 6.00 Build 0)  -->
<svg version="1.1" id="Layer_1" xmlns="http://www.w3.org/2000/svg" xmlns:xlink="http://www.w3.org/1999/xlink" x="0px" y="0px"
	 viewBox="0 0 1080 1080" style="enable-background:new 0 0 1080 1080;" xml:space="preserve">
<style type="text/css">
	.st0{fill:none;stroke:#FFFFFF;stroke-width:10;stroke-miterlimit:10;}
	.st1{clip-path:url(#SVGID_00000026854766587712204330000000870782570046618784_);}
	.st2{fill:#FFFFFF;}
	.st3{clip-path:url(#SVGID_00000054267595508224333200000014893499956252497846_);}
	.st4{fill:#E6E6E6;}
	.st5{clip-path:url(#SVGID_00000160896916262695437370000002980047117077135786_);}
	.st6{fill:#FCEE21;}
</style>
<g>
	<g>
		<path d="M535.5,949.2c-41.2-25.5-97.6-60.4-148.9-109.2c-28.1-26.7-51.8-55.1-70.5-84.3c-21.8-34.1-37.6-70.5-46.7-108.3
			c-48-197.5-43.1-309.3-43-310.4l0.2-3.5l3.4-1c0.4-0.1,38.7-11.3,144.2-38.5c111.8-28.8,164.7-39.5,165.2-39.6l1-0.2l1,0.2
			c0.5,0.1,53.5,10.8,165.2,39.6c105.5,27.2,143.8,38.4,144.2,38.5l3.4,1l0.2,3.5c0.1,1.1,5,113-43,310.4
			c-9.2,37.7-24.9,74.1-46.7,108.3c-18.7,29.2-42.4,57.5-70.5,84.3c-51.3,48.8-107.7,83.7-148.9,109.2l-4.8,3L535.5,949.2z"/>
		<path d="M540.3,259.2c0,0,52,10.5,165,39.6c106.7,27.5,144.1,38.5,144.1,38.5s5.5,110-42.9,309c-39.1,160.7-184.7,249.6-266.1,300
			c-81.4-50.4-227.1-139.3-266.1-300c-48.4-199-42.9-309-42.9-309s37.4-11,144.1-38.5C488.3,269.7,540.3,259.2,540.3,259.2
			 M540.3,249l-2,0.4c-0.5,0.1-53.6,10.9-165.5,39.7c-105.6,27.2-144,38.5-144.4,38.6l-6.8,2l-0.4,7.1c-0.1,1.2-1.4,28.8,3.3,81.3
			c4.3,48.1,14.7,127.2,39.8,230.6c9.3,38.3,25.2,75.2,47.4,109.8c18.9,29.5,42.9,58.2,71.3,85.2c51.7,49.1,108.4,84.2,149.8,109.8
			l2.2,1.3l5.3,3.3l5.3-3.3l2.2-1.3c41.4-25.6,98.1-60.7,149.8-109.8c28.4-27,52.4-55.7,71.3-85.2c22.1-34.6,38.1-71.5,47.4-109.8
			C841.3,545.2,851.7,466.1,856,418c4.7-52.5,3.4-80.1,3.3-81.3l-0.4-7.1l-6.8-2c-0.4-0.1-38.8-11.4-144.4-38.6
			c-111.9-28.8-164.9-39.6-165.5-39.7L540.3,249L540.3,249z"/>
	</g>
	<path class="st0" d="M541.8,286.4c0,0,47.8,9.6,151.6,36.4c98.1,25.3,132.4,35.4,132.4,35.4s5.1,101.1-39.4,284.1
		C750.5,789.9,616.6,871.7,541.8,918C467,871.7,333,789.9,297.1,642.2c-44.5-183-39.4-284.1-39.4-284.1s34.4-10.1,132.4-35.4
		C493.9,296,541.8,286.4,541.8,286.4z"/>
	<g>
		<defs>
			<path id="SVGID_1_" d="M543.1,137.7c0,0,23.3-7,139.9-2.5c187.4,7.4,165.8,200.8,165.8,200.8s5.5,110-42.9,309
				c-39.1,160.7-184.7,249.6-266.1,300c-81.4-50.4-227.1-139.3-266.1-300c-48.4-199-42.9-309-42.9-309s1.1-89.9,107.8-117.4
				C451.4,189.6,543.1,137.7,543.1,137.7z"/>
		</defs>
		<clipPath id="SVGID_00000176739185935908196900000001443355007385151916_">
			<use xlink:href="#SVGID_1_"  style="overflow:visible;"/>
		</clipPath>
		<g style="clip-path:url(#SVGID_00000176739185935908196900000001443355007385151916_);">
			<g>
				<g>
					<g>
						<path class="st2" d="M477.8,267.7c15,0,26.7,5.4,35.3,16.2c8.3,10.8,10.9,23.7,7.7,38.6L483.7,498
							c-3.2,15-11.3,27.8-24.3,38.6c-13.2,10.8-27.4,16.2-42.3,16.2h-54.8l-51.1,241h-65.9l111.8-526.1H477.8z M409,487
							c7.4,0,11.9-3.7,13.6-11l28-131.3c1.5-7.4-1.5-11-8.8-11H409L376.3,487H409z"/>
					</g>
				</g>
				<g>
					<defs>
						<polyline id="SVGID_00000130647298938837895530000010536137443907499439_" points="646.9,794 120.5,794 120.5,267.6 						"/>
					</defs>
					<clipPath id="SVGID_00000103983132034912736940000014017891899895789745_">
						<use xlink:href="#SVGID_00000130647298938837895530000010536137443907499439_"  style="overflow:visible;"/>
					</clipPath>
					<g style="clip-path:url(#SVGID_00000103983132034912736940000014017891899895789745_);">
						<g>
							<path class="st4" d="M477.8,267.7c15,0,26.7,5.4,35.3,16.2c8.3,10.8,10.9,23.7,7.7,38.6L483.7,498
								c-3.2,15-11.3,27.8-24.3,38.6c-13.2,10.8-27.4,16.2-42.3,16.2h-54.8l-51.1,241h-65.9l111.8-526.1H477.8z M409,487
								c7.4,0,11.9-3.7,13.6-11l28-131.3c1.5-7.4-1.5-11-8.8-11H409L376.3,487H409z"/>
						</g>
					</g>
				</g>
				<g>
					<g>
						<path d="M477.8,267.7c15,0,26.7,5.4,35.3,16.2c8.3,10.8,10.9,23.7,7.7,38.6L483.7,498c-3.2,15-11.3,27.8-24.3,38.6
							c-13.2,10.8-27.4,16.2-42.3,16.2h-54.8l-51.1,241h-65.9l111.8-526.1H477.8 M376.3,487H409c7.4,0,11.9-3.7,13.6-11l28-131.3
							c1.5-7.4-1.5-11-8.8-11H409L376.3,487 M477.8,257.7H357.1H349l-1.7,7.9L235.5,791.8l-2.6,12.1h12.3h65.9h8.1l1.7-7.9
							l49.5-233.1h46.7c17.3,0,33.6-6.2,48.6-18.4l0,0l0,0c14.7-12.2,24-27.1,27.7-44.2l37.2-175.5c3.8-17.9,0.6-33.6-9.6-46.8
							l0-0.1l0-0.1C510.4,264.4,495.9,257.7,477.8,257.7L477.8,257.7z M417.1,343.6h23.5l-27.7,130.2c-0.7,3.1-1.5,3.2-3.9,3.2
							h-20.4L417.1,343.6L417.1,343.6z"/>
					</g>
				</g>
			</g>
			<g>
				<g>
					<g>
						<path class="st2" d="M793.1,267.7c15,0,26.7,5.4,35.3,16.2c8.3,10.8,10.9,23.7,7.7,38.6L799,498c-3.2,15-11.3,27.8-24.3,38.6
							c-13.2,10.8-27.4,16.2-42.3,16.2h-54.8l-51.1,241h-65.9l111.8-526.1H793.1z M724.3,487c7.4,0,11.9-3.7,13.6-11l28-131.3
							c1.5-7.4-1.5-11-8.8-11h-32.7L691.6,487H724.3z"/>
					</g>
				</g>
				<g>
					<defs>
						<polyline id="SVGID_00000101101748703577973190000009899124292935575452_" points="962.2,794 435.9,794 435.9,267.6 						"/>
					</defs>
					<clipPath id="SVGID_00000119834836754993250970000015946074129731720624_">
						<use xlink:href="#SVGID_00000101101748703577973190000009899124292935575452_"  style="overflow:visible;"/>
					</clipPath>
					<g style="clip-path:url(#SVGID_00000119834836754993250970000015946074129731720624_);">
						<g>
							<path class="st4" d="M793.1,267.7c15,0,26.7,5.4,35.3,16.2c8.3,10.8,10.9,23.7,7.7,38.6L799,498c-3.2,15-11.3,27.8-24.3,38.6
								c-13.2,10.8-27.4,16.2-42.3,16.2h-54.8l-51.1,241h-65.9l111.8-526.1H793.1z M724.3,487c7.4,0,11.9-3.7,13.6-11l28-131.3
								c1.5-7.4-1.5-11-8.8-11h-32.7L691.6,487H724.3z"/>
						</g>
					</g>
				</g>
				<g>
					<g>
						<path d="M793.1,267.7c15,0,26.7,5.4,35.3,16.2c8.3,10.8,10.9,23.7,7.7,38.6L799,498c-3.2,15-11.3,27.8-24.3,38.6
							c-13.2,10.8-27.4,16.2-42.3,16.2h-54.8l-51.1,241h-65.9l111.8-526.1H793.1 M691.6,487h32.7c7.4,0,11.9-3.7,13.6-11l28-131.3
							c1.5-7.4-1.5-11-8.8-11h-32.7L691.6,487 M793.1,257.7H672.4h-8.1l-1.7,7.9L550.8,791.8l-2.6,12.1h12.3h65.9h8.1l1.7-7.9
							l49.5-233.1h46.7c17.3,0,33.6-6.2,48.6-18.4l0,0l0,0c14.7-12.2,24-27.1,27.7-44.2l37.2-175.5c3.8-17.9,0.6-33.6-9.6-46.8
							l0-0.1l0-0.1C825.7,264.4,811.2,257.7,793.1,257.7L793.1,257.7z M732.4,343.6h23.5l-27.7,130.2c-0.7,3.1-1.5,3.2-3.9,3.2
							h-20.4L732.4,343.6L732.4,343.6z"/>
					</g>
				</g>
			</g>
			<g>
				<g>
					<path class="st6" d="M414.1,666.2l9.3-44.4l164.8-291.1c4.3-7.4,7.2-15.2,8.8-23.2l18.3-84.6c0.4-2.2,0.2-3.5-0.1-3.9
						c-0.3-0.4-1.4-0.8-3.6-0.8H590c-3.8,0-6.5,1.1-7.6,6.7l-21.3,100h-74.3l26-123.5c3.3-15.6,12-29.2,25.7-40.4
						c13.2-11.2,28-16.9,44-16.9h64.1c16.1,0,29,5.9,38.3,17.6c9.1,11.7,11.9,25.8,8.5,41.8l-22.6,106c-3.4,16.2-9.5,32.2-18.1,47.6
						l-133,235h91.1l-15.7,74.1H414.1z"/>
					<path d="M646.6,149.1c14.6,0,26,5.3,34.4,15.8c8.1,10.5,10.6,23,7.5,37.6l-22.6,106c-3.3,15.8-9.2,31.2-17.5,46.2L511.2,597.1
						h93.5l-13.6,64.1H420.3l7.9-37.6l164.4-290.4c4.5-7.9,7.6-16.1,9.3-24.7l18.3-84.5c1.4-7.2-1.4-10.7-8.6-10.7H590
						c-6.9,0-11.1,3.6-12.5,10.7l-20.4,96H493l24.7-117.5c3.1-14.6,11.1-27.1,24-37.6c12.4-10.5,26-15.8,40.8-15.8H646.6
						 M646.6,139.1h-64.1c-17.1,0-33,6.1-47.2,18.1c-14.6,11.9-23.8,26.5-27.4,43.2l-24.7,117.5l-2.5,12.1H493h64.1h8.1l1.7-7.9
						l20.4-96l0-0.1l0-0.1c0.5-2.7,0.9-2.7,2.7-2.7h20l-18,83.1l0,0.1l0,0.1c-1.5,7.5-4.2,14.7-8.2,21.6l0,0l0,0L419.5,618.7
						l-0.8,1.4l-0.3,1.5l-7.9,37.6l-2.5,12.1h12.3h170.8h8.1l1.7-7.9l13.6-64.1l2.6-12.1h-12.3h-76.3l128.7-227.5l0,0l0,0
						c8.8-15.8,15-32.3,18.6-49l22.6-106c3.7-17.5,0.6-32.9-9.4-45.8l0-0.1l0-0.1C678.5,145.7,664.3,139.1,646.6,139.1L646.6,139.1z
						"/>
				</g>
			</g>
		</g>
	</g>
	<g>
		<g>
			<polygon class="st2" points="342.1,673.6 453.9,648.1 598,641.9 673,648.1 740.8,669.1 732.3,755.8 810.8,790.3 822,802.7 
				758,835.4 773.6,866.5 796,911.9 759.9,906.4 654,881.1 658.1,811.1 590.7,802.7 490.1,802.7 421.5,820.1 427.6,893.4 
				330.7,911.9 283.6,926.3 308.1,874.6 325.4,850.7 260.4,806.3 310.8,779.2 342.1,764.4 321.3,686 			"/>
			<g>
				<g>
					<path d="M830.2,794.8c-26.4-20.6-56-34.9-88.1-44.4c-0.6-0.2-1.2-0.3-1.7-0.3c2.5-26.4,5-52.8,7.5-79.1
						c0.2-2.4-1.6-5.7-3.9-6.7C678,635.8,603.8,631,532.7,633.3c-71.9,2.3-146.8,14.2-212.6,44.1c-3,1.4-3.9,5.2-3.3,8.1
						c5.4,25.2,10.6,50.4,15.8,75.6c-29.8,9.5-57.4,23.2-82.2,42.6c-4.2,3.3-2.2,9.8,1.6,12.2c19.8,12.9,40.5,24,61.2,35.3
						c-17.4,22.3-31.4,46.8-37.6,74.7c-1.1,5.1,3.7,11.9,9.5,9.5c46.7-19,95.6-27.3,144.9-36.3c3.1-0.6,6.1-4.4,5.8-7.6
						c-2.8-22.8-5.3-45.5-5.7-68.5c71.1-15.8,149.1-19,220.4-5.9c-0.6,22-2.9,43.8-5.6,65.6c-0.4,3.2,2.7,7,5.8,7.6
						c49.4,9,98.2,17.3,144.9,36.3c5.8,2.4,10.7-4.4,9.5-9.5c-6.2-27.9-20.2-52.4-37.6-74.7c20.7-11.3,41.4-22.4,61.2-35.3
						C832.4,804.6,834.4,798.1,830.2,794.8z M294.9,915.2c7.8-22.3,21-42.6,36.1-60.8c3.2-3.8,3.2-9.9-1.6-12.5
						c-20-11-40.1-21.6-59.6-33.4c20.3-14.3,42.5-24,65.7-32.9c4.4,21.5,8.8,42.9,13.1,64.4c0.3,1.5,1,2.4,1.8,3.2
						c0.4,0.4,0.7,0.8,1.2,1.1c0.2,0.2,0.2,0.4,0.4,0.6c11.4,10.3,25.3,18.5,37.6,27.7c6.6,4.9,13.1,9.8,19.8,14.6
						c-6.4,2.9-16,2.8-26.4,4.7C353,897.4,323.6,904.6,294.9,915.2z M417,868.2c0.3,2.5,0.3,4.6,0.2,6.5
						c-5.7-4.4-11.3-8.7-17.1-12.9c-9.6-7-19.4-15.5-29.8-22c14.1-4.8,28.6-9.1,43.5-12.9C414.3,840.7,415.4,854.4,417,868.2z
						 M359.9,829.5c-4.2-21-8.5-41.9-12.7-62.9c0.1-1.5-0.2-2.9-0.8-4.2c-4.2-21-8.4-41.9-12.3-62.9c-1.1-5.8-2.2-11.6-3.3-17.4
						c1.3,7,55-12.2,61.3-13.8c45.9-12,93.4-17.3,140.7-19.4c46.8-2.1,94,0.7,140.1,9.6c17.8,3.4,35.2,8.5,52.3,14.7
						c7.9,2.9,7.7-5.5,7,2.6c-0.4,4.2-0.8,8.4-1.2,12.6c-4.2,43.6-8.3,87.3-12.4,130.9C607.7,779.6,468.7,788.7,359.9,829.5z
						 M708.6,832.1c-8.8,5.8-17.1,12.8-25.2,18.7c-7,5.1-13.9,10.3-20.7,15.6c2-15.3,3.5-30.6,4.1-46
						C681,823.6,695,827.5,708.6,832.1z M670.8,878.5c6.8-4.8,13.4-9.8,20-14.8c11.7-8.7,24.8-16.6,35.8-26.2
						c3.4-0.8,5.9-4.4,6.2-7.8c2.1-21.8,4.1-43.5,6.2-65.3c25.4,9.6,49.7,19.8,71.8,35.3c-19.5,11.8-39.6,22.4-59.6,33.4
						c-4.8,2.7-4.8,8.7-1.6,12.5c15.1,18.1,28.4,38.4,36.1,60.8c-25.4-9.3-51.3-16-77.9-21.4C702.9,884,682.7,882.5,670.8,878.5z"/>
				</g>
				<g>
					<path d="M414.7,673.6c-13.7,0.4-26.9,3.8-40.1,7.6c-11.1,3.3-24.1,7-32.2,15.6c-0.7,0.7,0,1.8,0.9,1.6
						c12.7-2.7,24.8-8.8,37.5-12.2c11.7-3.2,23.4-5.5,34.5-10.3C416.4,675.4,415.8,673.6,414.7,673.6z"/>
				</g>
				<g>
					<path d="M394.2,692.9c-8.2-0.7-16.4,2-24.2,4c-8.2,2.2-15.6,4.5-22.7,9.1c-1,0.6-0.4,2.1,0.8,1.9c7.8-1.7,15.5-4,23.4-5.8
						c8-1.8,16.4-2.9,23.2-7.6C395.4,694.1,395.1,693,394.2,692.9z"/>
				</g>
				<g>
					<path d="M383.2,709.8c-9.8,1-25,1-32,9c-0.4,0.5-0.2,1.3,0.6,1.3c5.4,0.1,10.9-2,16.1-3.3c5.5-1.4,10.6-3.1,15.8-5.5
						C384.3,711,384,709.8,383.2,709.8z"/>
				</g>
				<g>
					<path d="M693.3,795.4c-6.3-2.4-13.3-4.1-19.9-2.1c-0.5,0.2-0.5,0.9,0,1c6.1,2.3,12.5,3.5,18.6,5.7c6.2,2.3,11.8,6,18.6,6.3
						c0.7,0,1.1-0.9,0.6-1.4C706.3,800,699.6,797.8,693.3,795.4z"/>
				</g>
				<g>
					<path d="M702.1,792.8c2.5,0.9,6.3,3.5,8.9,1.8c0.4-0.3,0.5-0.6,0.4-1c-0.4-2.7-3.9-3.5-6.2-4.2c-2.8-0.8-6.2-2.4-9-1.2
						c-0.3,0.1-0.5,0.5-0.3,0.8C697.1,791.3,699.8,791.9,702.1,792.8z"/>
				</g>
				<g>
					<path d="M389.4,645.9c61.3-14.4,123-23.4,187.1-20.2c0.7,0,0.7-1,0-1.1c-43.7-4.2-87.1-1.1-130.4,5.6
						c-19,2.9-38.5,6.4-57.6,11.1"/>
				</g>
				<g>
					<path d="M597.5,627.7c0.4,0,0.7-0.7,0.2-0.9c-4.4-1.9-9.4-1.8-14-1c-0.4,0.1-0.4,0.7,0,0.8C588.2,627.3,593,627.9,597.5,627.7z
						"/>
				</g>
				<g>
					<path d="M561.8,820.7c-38.8-1.5-82.2-0.6-119.7,10.8c-0.4,0.1-0.3,0.8,0.1,0.7c39.9-2.7,79.5-8.3,119.6-10.2
						C562.6,821.9,562.6,820.7,561.8,820.7z"/>
				</g>
				<g>
					<path d="M806.1,766.8c9.5,4,18.1,9.8,27.6,13.8c0.6,0.3,1.3-0.4,0.8-1c-13.9-13.6-37-22.1-56-24.1c-0.5,0-0.5,0.6-0.1,0.8
						C787.5,759.8,796.9,762.9,806.1,766.8z"/>
				</g>
				<g>
					<path d="M681.9,907.9c10.1,2.2,19.6,6.3,29.7,8.6c0.6,0.1,1.2-0.7,0.6-1.1c-16.1-10.8-40.4-15-59.5-13.5c-0.5,0-0.4,0.7,0,0.8
						C662.4,904.4,672.2,905.8,681.9,907.9z"/>
				</g>
				<g>
					<path d="M273.3,775.8c8.4-4.3,17.2-7.5,24.9-13c0.6-0.4,0.1-1.3-0.6-1.1c-18.8,5.5-41.8,15.6-53.1,32.4
						c-0.2,0.3,0.1,0.7,0.4,0.5C251.3,789.3,261.4,781.8,273.3,775.8z"/>
				</g>
				<g>
					<path d="M385.1,919.8c-9.2,2-18.1,5.1-27.5,5.7c-0.7,0.1-0.9-0.9-0.2-1.2c18-7.6,42.3-14.4,61.6-8.5c0.3,0.1,0.4,0.6,0,0.6
						C407.4,916.3,396.3,917.3,385.1,919.8z"/>
				</g>
			</g>
		</g>
		<g>
			<g>
				<path d="M428.7,681.7c-4.4,35.7-8.8,71.5-13.2,107.3c-5.1,1.6-7.6,2.5-12.7,4.3c0.6-5.4,1-8.1,1.6-13.5c-3.8,1.3-5.7,2-9.4,3.5
					c-1.5,5.7-2.2,8.6-3.7,14.4c-5,2-7.5,3-12.4,5.1c9.7-38.3,19.5-76.5,29.6-114.7C416.5,685.3,420.5,684,428.7,681.7z M398.7,769
					c2.9-1.1,4.4-1.6,7.3-2.6c1.9-15.6,3.8-31.2,5.7-46.8C407.3,736,403,752.5,398.7,769z"/>
				<path d="M471,672c1.8-0.3,3.2,0.2,4.2,1.3c1,1.1,1.4,2.5,1,4.4c-2,9.6-4,19.3-6,28.9c-5.2,0.9-7.8,1.4-13,2.5
					c1.7-8.1,2.5-12.1,4.1-20.2c0.3-1.5-0.3-2.1-1.7-1.8c-1.7,0.4-2.6,0.5-4.4,0.9c-1.4,0.3-2.2,1.2-2.5,2.7
					c-5.2,25.6-10.4,51.3-15.6,76.9c-0.3,1.5,0.3,2,1.7,1.7c1.7-0.4,2.6-0.7,4.3-1.1c1.4-0.4,2.3-1.3,2.6-2.7
					c1.6-8.2,2.5-12.2,4.1-20.4c5.2-1.2,7.8-1.7,13-2.7c-2,9.7-4,19.5-6,29.2c-0.4,1.9-1.4,3.6-2.9,5.2c-1.5,1.6-3.2,2.6-5,3
					c-8.6,2-12.9,3.1-21.4,5.6c-1.8,0.5-3.1,0.3-4.1-0.7c-1-1-1.3-2.4-0.9-4.3c6.3-31.9,12.7-63.7,19.1-95.6
					c0.4-1.9,1.3-3.6,2.8-5.2c1.5-1.7,3.2-2.7,5-3.1C458,674.4,462.3,673.5,471,672z"/>
				<path d="M513,667c-4.5,34.8-9.1,69.6-13.6,104.4c-5.3,0.5-7.9,0.8-13.1,1.5c0.7-5.3,1-7.9,1.7-13.1c-3.9,0.5-5.9,0.8-9.8,1.4
					c-1.5,5.4-2.3,8.1-3.9,13.5c-5.2,0.9-7.8,1.3-13,2.4c10.2-36.1,20.5-72.1,30.9-108.1C500.5,667.9,504.7,667.5,513,667z
					 M482.1,747.7c3-0.4,4.6-0.6,7.6-1c2-15.2,3.9-30.4,5.9-45.6C491,716.6,486.5,732.2,482.1,747.7z"/>
				<path d="M551.9,666.2c3,0.1,5.4,1.2,7.1,3.4c1.7,2.2,2.2,4.8,1.5,7.7c-5.9,27.1-11.8,54.1-17.7,81.2c-0.7,3-2.4,5.5-4.9,7.6
					c-2.6,2.1-5.4,3.2-8.4,3.3c-9.7,0.3-14.5,0.5-24.2,1.4c7.4-34.9,14.9-69.7,22.4-104.6C537.4,665.9,542.2,665.9,551.9,666.2z
					 M527.8,756.6c1.5,0,2.4-0.8,2.7-2.2c5.3-24.4,10.6-48.8,15.9-73.2c0.3-1.4-0.3-2.2-1.8-2.2c-2.6,0-3.9,0-6.6,0
					c-5.6,25.9-11.2,51.9-16.8,77.8C523.9,756.7,525.2,756.6,527.8,756.6z"/>
				<path d="M601.6,670.7c-1.1,5-1.7,7.5-2.8,12.5c-7.8-1.1-11.8-1.6-19.7-2.4c-2.2,9.8-4.4,19.7-6.5,29.5c4.4,0.3,6.6,0.6,11,1
					c-1.1,5-1.7,7.6-2.8,12.6c-4.4-0.4-6.6-0.6-11-0.9c-2.5,11.3-5,22.6-7.4,33.9c7.9,0.4,11.8,0.7,19.7,1.6
					c-1.1,5.1-1.7,7.6-2.8,12.6c-11-0.9-21.9-1.5-32.9-1.8c7.4-34.1,14.9-68.2,22.4-102.3C579.8,668,590.6,669.2,601.6,670.7z"/>
				<path d="M659,683.8c-7.3,32.4-14.5,64.8-21.8,97.2c-5.2-1.3-7.8-1.9-12.9-3c4.9-21.9,9.8-43.8,14.7-65.8
					c-7.8,21.3-15.6,42.7-23.3,64c-3.5-0.7-5.3-1-8.8-1.6c2.1-22.7,4.2-45.4,6.3-68.1c-5,22.2-9.9,44.5-14.9,66.7
					c-5.2-0.8-7.9-1.1-13.1-1.7c7.4-33.4,14.8-66.8,22.3-100.1c8.8,1.5,13.2,2.3,21.9,4.3c-1,10.9-2,21.7-3,32.6
					c3.7-10.2,7.5-20.5,11.2-30.7C646.1,680,650.4,681.2,659,683.8z"/>
				<path d="M701.7,699.5c-8.7,19-17.4,38-26,57.1c-2.5,11.1-5,22.3-7.5,33.4c-5-1.7-7.6-2.5-12.7-4c2.5-11.2,5-22.4,7.6-33.6
					c0.5-22.3,1.1-44.5,1.6-66.8c5.2,1.7,7.7,2.5,12.9,4.4c-0.3,10.5-0.5,20.9-0.8,31.4c4.1-9,8.2-18.1,12.3-27.1
					C694.2,696.3,696.7,697.3,701.7,699.5z"/>
			</g>
		</g>
	</g>
</g>
</svg>
