{
  "accessors": [
    {
      "bufferView": 2,
      "componentType": 5126,
      "count": 858,
      "max": [
        0.2628546357154846,
        0.26572251319885254,
        0.2522123456001282
      ],
      "min": [
        -0.262854665517807,
        -0.26572251319885254,
        -0.25221237540245056
      ],
      "type": "VEC3"
    },
    {
      "bufferView": 2,
      "byteOffset": 10296,
      "componentType": 5126,
      "count": 858,
      "max": [
        0.98788982629776,
        1.0,
        0.9963669776916504
      ],
      "min": [
        -0.98788982629776,
        -1.0,
        -0.9963669776916504
      ],
      "type": "VEC3"
    },
    {
      "bufferView": 1,
      "componentType": 5126,
      "count": 858,
      "max": [
        0.9689651131629944,
        0.41862747073173523
      ],
      "min": [
        0.031034663319587708,
        0.05375459045171738
      ],
      "type": "VEC2"
    },
    {
      "bufferView": 0,
      "componentType": 5125,
      "count": 3600,
      "type": "SCALAR"
    },
    {
      "bufferView": 2,
      "byteOffset": 20592,
      "componentType": 5126,
      "count": 442,
      "max": [
        0.2610197961330414,
        0.25924819707870483,
        0.26329219341278076
      ],
      "min": [
        -0.2610200047492981,
        -0.25924819707870483,
        -0.26329219341278076
      ],
      "type": "VEC3"
    },
    {
      "bufferView": 2,
      "byteOffset": 25896,
      "componentType": 5126,
      "count": 442,
      "max": [
        0.999996542930603,
        0.9994298219680786,
        1.0
      ],
      "min": [
        -0.999996542930603,
        -0.9994298219680786,
        -1.0
      ],
      "type": "VEC3"
    },
    {
      "bufferView": 1,
      "byteOffset": 6864,
      "componentType": 5126,
      "count": 442,
      "max": [
        0.9534471035003662,
        0.41862738132476807
      ],
      "min": [
        0.04655245319008827,
        0.05375460162758827
      ],
      "type": "VEC2"
    },
    {
      "bufferView": 0,
      "byteOffset": 14400,
      "componentType": 5125,
      "count": 1800,
      "type": "SCALAR"
    }
  ],
  "asset": {
    "extras": {
      "author": "ApprenticeRaccoon (https://sketchfab.com/ApprenticeRaccoon)",
      "license": "CC-BY-4.0 (http://creativecommons.org/licenses/by/4.0/)",
      "source": "https://sketchfab.com/3d-models/soccer-ball-791a3cac9bec42a3aff400bb0545b8ad",
      "title": "Soccer ball"
    },
    "generator": "Sketchfab-15.30.0",
    "version": "2.0"
  },
  "bufferViews": [
    {
      "buffer": 0,
      "byteLength": 21600,
      "name": "floatBufferViews",
      "target": 34963
    },
    {
      "buffer": 0,
      "byteLength": 10400,
      "byteOffset": 21600,
      "byteStride": 8,
      "name": "floatBufferViews",
      "target": 34962
    },
    {
      "buffer": 0,
      "byteLength": 31200,
      "byteOffset": 32000,
      "byteStride": 12,
      "name": "floatBufferViews",
      "target": 34962
    }
  ],
  "buffers": [
    {
      "byteLength": 63200,
      "uri": "scene.bin"
    }
  ],
  "materials": [
    {
      "doubleSided": true,
      "name": "White",
      "pbrMetallicRoughness": {
        "baseColorFactor": [
          0.8,
          0.8,
          0.8,
          1.0
        ],
        "metallicFactor": 0.0,
        "roughnessFactor": 0.8040408205773457
      }
    },
    {
      "doubleSided": true,
      "name": "Black",
      "pbrMetallicRoughness": {
        "baseColorFactor": [
          0.00807583,
          0.00807583,
          0.00807583,
          1.0
        ],
        "metallicFactor": 0.0,
        "roughnessFactor": 0.9981941895145268
      }
    }
  ],
  "meshes": [
    {
      "name": "Soccer_ball_White_0",
      "primitives": [
        {
          "attributes": {
            "NORMAL": 1,
            "POSITION": 0,
            "TEXCOORD_0": 2
          },
          "indices": 3,
          "material": 0,
          "mode": 4
        }
      ]
    },
    {
      "name": "Soccer_ball_Black_0",
      "primitives": [
        {
          "attributes": {
            "NORMAL": 5,
            "POSITION": 4,
            "TEXCOORD_0": 6
          },
          "indices": 7,
          "material": 1,
          "mode": 4
        }
      ]
    }
  ],
  "nodes": [
    {
      "children": [
        1
      ],
      "matrix": [
        1.0,
        0.0,
        0.0,
        0.0,
        0.0,
        2.220446049250313e-16,
        -1.0,
        0.0,
        0.0,
        1.0,
        2.220446049250313e-16,
        0.0,
        0.0,
        0.0,
        0.0,
        1.0
      ],
      "name": "Sketchfab_model"
    },
    {
      "children": [
        2
      ],
      "matrix": [
        0.009999999776482582,
        0.0,
        0.0,
        0.0,
        0.0,
        0.0,
        0.009999999776482582,
        0.0,
        0.0,
        -0.009999999776482582,
        0.0,
        0.0,
        0.0,
        0.0,
        0.0,
        1.0
      ],
      "name": "Soccer_ball_fbx.fbx"
    },
    {
      "children": [
        3
      ],
      "name": "RootNode"
    },
    {
      "children": [
        4,
        5
      ],
      "matrix": [
        100.0,
        0.0,
        0.0,
        0.0,
        -0.0,
        -1.629206793918314e-05,
        -99.99999999999868,
        0.0,
        0.0,
        99.99999999999868,
        -1.629206793918314e-05,
        0.0,
        -6.630190910072997e-05,
        3.70711813957314e-06,
        -2.1605238487154566e-08,
        1.0
      ],
      "name": "Soccer_ball"
    },
    {
      "mesh": 0,
      "name": "Soccer_ball_White_0"
    },
    {
      "mesh": 1,
      "name": "Soccer_ball_Black_0"
    }
  ],
  "scene": 0,
  "scenes": [
    {
      "name": "Sketchfab_Scene",
      "nodes": [
        0
      ]
    }
  ]
}
